<?xml version="1.0" encoding="UTF-8"?>
<svg id="Capa_1" data-name="Capa 1" xmlns="http://www.w3.org/2000/svg" viewBox="0 0 220 40">
  <defs>
    <style>
      .cls-1 {
        fill: #142035;
      }
    </style>
  </defs>
  <path class="cls-1" d="M45.81,33.13h-5.6v-9.09h5.6v1.44h-4.07v2.41h3.69v1.4h-3.69v2.41h4.07v1.44Z"/>
  <path class="cls-1" d="M46.7,33.13l2.26-3.15-2.23-3.09h1.77c.04.07.27.41.7,1.02.42.61.65.94.67.98l1.36-2h1.69l-2.19,3.06,2.26,3.18h-1.74l-1.45-2.09s-.15.22-.38.56c-.23.34-.45.66-.66.97-.21.31-.34.5-.37.56h-1.7Z"/>
  <path class="cls-1" d="M55.56,35.57h-1.47v-8.68h1.43v.85c.16-.28.42-.52.77-.71.35-.19.76-.28,1.22-.28.9,0,1.6.31,2.11.92.51.61.77,1.39.77,2.34s-.27,1.73-.81,2.35c-.54.62-1.25.93-2.12.93-.43,0-.81-.08-1.14-.24-.33-.16-.58-.37-.76-.62v3.14ZM58.9,30c0-.58-.15-1.05-.46-1.4s-.71-.53-1.22-.53-.9.18-1.21.53c-.31.35-.47.82-.47,1.4s.16,1.06.47,1.42c.31.36.71.54,1.21.54s.9-.18,1.21-.54c.31-.36.47-.83.47-1.42Z"/>
  <path class="cls-1" d="M64.55,26.7c.94,0,1.71.31,2.32.94.61.62.91,1.41.91,2.37s-.31,1.75-.91,2.38-1.38.94-2.32.94-1.7-.31-2.31-.94-.91-1.42-.91-2.38.3-1.75.91-2.37c.61-.62,1.38-.94,2.31-.94ZM63.32,31.46c.34.35.75.53,1.23.53s.9-.18,1.23-.53c.34-.35.51-.84.51-1.46s-.17-1.1-.51-1.44c-.34-.35-.75-.52-1.23-.52s-.9.17-1.23.52c-.34.35-.51.83-.51,1.44s.17,1.1.51,1.45Z"/>
  <path class="cls-1" d="M80.57,33.13h-1.24l-.12-1.15c-.22.38-.57.69-1.05.95-.48.26-1.05.39-1.73.39-1.24,0-2.29-.43-3.16-1.29-.87-.86-1.3-2.01-1.3-3.45,0-.96.22-1.8.66-2.54.44-.73,1-1.28,1.68-1.65.68-.36,1.42-.54,2.23-.54,1.05,0,1.93.26,2.64.78.71.52,1.2,1.18,1.45,1.99l-1.45.55c-.16-.55-.47-1-.93-1.36-.46-.36-1.03-.54-1.71-.54-.81,0-1.51.29-2.11.86s-.9,1.39-.9,2.45.29,1.87.87,2.45c.58.59,1.29.88,2.12.88s1.44-.22,1.87-.65c.43-.43.67-.9.72-1.39h-2.99v-1.35h4.44v4.6Z"/>
  <path class="cls-1" d="M85.95,26.85v1.51c-.17-.03-.33-.04-.49-.04-1.12,0-1.68.61-1.68,1.83v2.97h-1.48v-6.24h1.45v1c.14-.33.38-.6.7-.79s.69-.29,1.1-.29c.14,0,.27.01.4.04Z"/>
  <path class="cls-1" d="M89.86,26.7c.94,0,1.71.31,2.32.94.61.62.91,1.41.91,2.37s-.31,1.75-.91,2.38c-.61.63-1.38.94-2.32.94s-1.7-.31-2.31-.94-.91-1.42-.91-2.38.31-1.75.91-2.37c.61-.62,1.38-.94,2.31-.94ZM88.63,31.46c.34.35.75.53,1.23.53s.9-.18,1.23-.53c.34-.35.51-.84.51-1.46s-.17-1.1-.51-1.44-.75-.52-1.23-.52-.9.17-1.23.52c-.34.35-.51.83-.51,1.44s.17,1.1.51,1.45Z"/>
  <path class="cls-1" d="M98.55,32.44c-.15.27-.38.49-.71.64s-.68.23-1.06.23c-.73,0-1.3-.24-1.72-.7-.42-.47-.63-1.06-.63-1.78v-3.94h1.48v3.67c0,.42.1.76.31,1.03s.52.4.95.4.74-.13.97-.38c.23-.26.34-.59.34-1.01v-3.69h1.48v5.1c0,.38.02.76.06,1.14h-1.42c-.03-.19-.05-.42-.05-.69Z"/>
  <path class="cls-1" d="M103.35,35.57h-1.47v-8.68h1.43v.85c.16-.28.42-.52.77-.71.35-.19.75-.28,1.22-.28.9,0,1.6.31,2.11.92s.77,1.39.77,2.34-.27,1.73-.81,2.35c-.54.62-1.25.93-2.12.93-.43,0-.81-.08-1.14-.24-.33-.16-.58-.37-.75-.62v3.14ZM106.69,30c0-.58-.15-1.05-.46-1.4s-.71-.53-1.22-.53-.9.18-1.21.53c-.31.35-.47.82-.47,1.4s.16,1.06.47,1.42c.31.36.71.54,1.21.54s.9-.18,1.21-.54c.31-.36.47-.83.47-1.42Z"/>
  <path class="cls-1" d="M51.6,9.02l-3.14.89c-.07-.49-.32-.94-.73-1.35-.41-.41-1.04-.62-1.88-.62-.63,0-1.15.17-1.55.5-.4.33-.6.73-.6,1.18,0,.81.52,1.31,1.55,1.51l2.1.4c1.44.27,2.56.83,3.35,1.69.79.86,1.18,1.87,1.18,3.02,0,1.31-.52,2.47-1.57,3.46-1.05,1-2.45,1.49-4.22,1.49-1.97,0-3.5-.51-4.59-1.54-1.08-1.03-1.69-2.19-1.82-3.49l3.2-.77c.07.78.38,1.43.92,1.94.54.51,1.32.76,2.33.76.68,0,1.22-.15,1.61-.45.4-.3.6-.7.6-1.18,0-.4-.15-.73-.44-1.01-.3-.27-.71-.46-1.24-.56l-2.14-.4c-1.33-.25-2.37-.79-3.13-1.62-.76-.83-1.14-1.82-1.14-2.99,0-1.45.55-2.65,1.66-3.61,1.1-.96,2.42-1.44,3.96-1.44.93,0,1.76.13,2.49.39.73.26,1.31.6,1.73,1.03.43.43.76.87,1.01,1.33.24.46.41.94.5,1.44Z"/>
  <path class="cls-1" d="M58.37,6.65v3.21h2.14v2.94h-2.14v4.12c0,.77.4,1.15,1.22,1.15.27,0,.56-.04.88-.11v2.79c-.41.21-.99.31-1.75.31-1.13,0-2.03-.32-2.69-.95-.66-.63-.98-1.5-.98-2.59v-4.72h-1.94v-2.94h.55c.56,0,.98-.17,1.27-.5.29-.33.43-.76.43-1.3v-1.42h3.01Z"/>
  <path class="cls-1" d="M69.75,9.86v3.32c-.31-.07-.66-.11-1.06-.11-.75,0-1.37.24-1.85.73-.48.49-.72,1.24-.72,2.26v4.8h-3.36v-11h3.25v1.48c.27-.56.67-.97,1.22-1.22.54-.25,1.09-.38,1.64-.38.34,0,.63.04.88.11Z"/>
  <path class="cls-1" d="M71.2,17.83c0-.93.3-1.68.91-2.25.6-.57,1.38-.93,2.34-1.07l2.59-.4c.53-.07.8-.32.8-.75,0-.34-.14-.62-.43-.85-.29-.23-.68-.34-1.18-.34-.56,0-1.01.16-1.34.48-.33.32-.51.7-.54,1.14l-2.92-.6c.07-.91.53-1.75,1.36-2.51.83-.76,1.99-1.14,3.46-1.14,1.66,0,2.89.4,3.68,1.2.79.8,1.18,1.82,1.18,3.06v5.38c0,.69.04,1.26.13,1.7h-3.03c-.07-.3-.11-.71-.11-1.24-.63,1.03-1.66,1.55-3.09,1.55-1.16,0-2.09-.33-2.77-.99-.69-.66-1.03-1.44-1.03-2.36ZM75.82,18.74c.57,0,1.05-.17,1.44-.51.38-.34.57-.9.57-1.68v-.49l-2.08.33c-.83.13-1.24.54-1.24,1.22,0,.31.11.58.32.8.21.22.54.33.98.33Z"/>
  <path class="cls-1" d="M87.84,6.65v3.21h2.14v2.94h-2.14v4.12c0,.77.4,1.15,1.22,1.15.27,0,.56-.04.88-.11v2.79c-.41.21-.99.31-1.75.31-1.13,0-2.03-.32-2.69-.95-.66-.63-.98-1.5-.98-2.59v-4.72h-1.94v-2.94h.55c.56,0,.98-.17,1.27-.5.29-.33.43-.76.43-1.3v-1.42h3.01Z"/>
  <path class="cls-1" d="M99.42,16.9l2.81.8c-.28,1.02-.86,1.86-1.75,2.51s-1.99.99-3.31.99c-1.59,0-2.94-.53-4.06-1.59s-1.67-2.49-1.67-4.27.54-3.11,1.62-4.18c1.08-1.08,2.37-1.62,3.86-1.62,1.71,0,3.05.5,4.03,1.49.98,1,1.47,2.38,1.47,4.15,0,.56-.02.91-.07,1.04h-7.65c.03.61.29,1.11.77,1.52.49.41,1.06.61,1.72.61,1.13,0,1.87-.48,2.21-1.44ZM94.78,14.04h4.4c-.03-.5-.22-.94-.59-1.31-.36-.37-.9-.55-1.62-.55-.65,0-1.16.19-1.55.58-.38.38-.6.81-.64,1.28Z"/>
  <path class="cls-1" d="M103.82,21.48l2.96-.84c.12.55.39.99.81,1.33.42.34.94.51,1.56.51,1.81,0,2.72-.94,2.72-2.81v-.51c-.55.83-1.52,1.24-2.94,1.24s-2.67-.51-3.65-1.53c-.97-1.02-1.46-2.29-1.46-3.83s.48-2.74,1.45-3.8c.96-1.06,2.18-1.58,3.66-1.58.81,0,1.47.14,1.99.42.52.28.87.6,1.06.95v-1.17h3.2v9.63c0,1.71-.49,3.13-1.48,4.24-.99,1.11-2.45,1.67-4.4,1.67-1.5,0-2.75-.39-3.75-1.16-.99-.77-1.57-1.69-1.73-2.76ZM107.84,16.81c.44.44,1.01.66,1.7.66s1.26-.22,1.69-.66c.43-.44.65-1.03.65-1.77s-.23-1.31-.69-1.76c-.46-.45-1.01-.68-1.66-.68s-1.2.23-1.67.68c-.46.45-.7,1.04-.7,1.76s.22,1.33.66,1.77Z"/>
  <path class="cls-1" d="M118.3,7.89c-.38-.38-.57-.85-.57-1.39s.19-1.01.57-1.39c.38-.38.84-.58,1.37-.58s1.01.19,1.4.58c.39.38.59.85.59,1.39s-.2,1.01-.59,1.39c-.39.38-.86.58-1.4.58s-.99-.19-1.37-.58ZM121.37,20.86h-3.36v-11h3.36v11Z"/>
  <path class="cls-1" d="M129.37,12.63c-.72,0-1.32.24-1.8.73-.48.49-.72,1.16-.72,2.01s.25,1.51.74,1.99c.49.49,1.1.73,1.82.73.6,0,1.1-.16,1.49-.48.39-.32.65-.7.78-1.16l2.96.91c-.27,1.05-.86,1.95-1.78,2.7-.92.75-2.07,1.13-3.46,1.13-1.65,0-3.05-.55-4.19-1.65-1.14-1.1-1.71-2.49-1.71-4.17s.56-3.1,1.67-4.2c1.11-1.1,2.49-1.65,4.12-1.65,1.43,0,2.6.37,3.51,1.11.91.74,1.5,1.65,1.77,2.72l-3.01.91c-.13-.47-.38-.86-.75-1.17s-.85-.46-1.46-.46Z"/>
</svg>